<svg version="1.1" id="Layer_1" xmlns="http://www.w3.org/2000/svg" xmlns:xlink="http://www.w3.org/1999/xlink" x="0px" y="0px"
	 width="100%" viewBox="0 0 336 352" enable-background="new 0 0 336 352" xml:space="preserve">
<path fill="#000000" opacity="1.000000" stroke="none" 
	d="
M60.647247,175.962982 
	C59.294868,156.473648 61.762531,138.174179 71.420525,121.302063 
	C75.058891,114.945992 78.458611,108.533081 80.293152,101.318214 
	C81.752495,95.578911 84.772141,90.588379 89.816742,87.075806 
	C95.738617,82.952393 100.537018,77.626694 105.484306,72.443069 
	C109.242256,68.505615 113.445305,65.337891 119.485405,66.601845 
	C122.203247,67.170586 123.653732,65.107307 125.348892,63.495766 
	C132.655685,56.549435 141.175888,54.112244 151.020691,56.785164 
	C155.646515,58.041103 158.356049,61.871479 161.640244,64.849266 
	C165.778244,68.601219 170.204224,72.065193 172.130920,77.855675 
	C173.168945,80.975334 173.689972,83.887650 172.020782,86.437851 
	C166.968140,94.157379 167.888931,101.839706 171.280518,109.744446 
	C173.212250,114.246719 174.597961,118.843025 172.219574,123.674835 
	C171.587875,124.958176 172.342255,125.940842 173.155090,126.796341 
	C177.111862,130.960831 177.719818,136.240585 178.008865,141.578583 
	C178.085388,142.991760 177.780563,144.383408 179.729797,144.450897 
	C181.261337,144.503906 181.523026,143.341614 181.715012,142.097137 
	C182.598297,136.372009 182.881409,130.544632 185.409805,125.132950 
	C186.521286,122.754028 184.756561,120.280624 184.658539,117.791435 
	C184.384216,110.825401 187.640823,104.888397 190.194153,98.797920 
	C191.583374,95.484177 191.422745,93.129692 189.068039,90.230637 
	C184.252945,84.302376 184.500183,79.849556 188.772598,73.459869 
	C195.844193,62.883781 205.582016,56.675186 218.182571,54.858707 
	C220.673431,54.499638 222.680588,55.273922 224.802673,56.401752 
	C232.223785,60.345875 238.796173,65.877930 247.446976,67.549515 
	C251.450638,68.323128 254.419662,71.437515 256.140167,75.265144 
	C257.388580,78.042519 259.478027,79.692825 262.120972,80.959610 
	C270.319611,84.889305 275.785156,91.434143 278.708099,99.848511 
	C279.991486,103.543030 280.354462,107.509018 282.137970,111.176743 
	C284.555176,116.147598 287.022736,120.931999 290.937714,124.971901 
	C294.589081,128.739761 295.793488,133.589294 295.568512,138.787811 
	C295.102386,149.559891 294.860779,160.380783 289.669495,170.259857 
	C287.824463,173.770935 288.502808,176.261230 291.797150,178.737747 
	C300.045654,184.938583 308.953186,190.244965 316.683289,197.153351 
	C318.854706,199.093948 320.811310,201.100922 321.269653,204.053177 
	C321.945251,208.404831 320.841644,211.627441 316.336914,213.738388 
	C305.458923,218.835922 305.514221,219.016556 307.212799,230.872452 
	C309.438446,246.407303 300.997162,269.816223 283.535980,275.561768 
	C281.141724,276.349609 280.207886,278.018799 280.315460,280.531036 
	C280.422119,283.022614 280.500061,285.560516 280.160156,288.018585 
	C278.374908,300.930023 272.148560,307.283905 259.175812,309.634613 
	C249.056198,311.468292 238.968704,313.751007 228.590561,311.461853 
	C225.733078,310.831604 224.488113,313.103394 223.027908,314.901520 
	C212.668503,327.658447 195.279282,324.677643 186.949905,316.948120 
	C180.299530,310.776672 178.842560,303.964844 182.714813,295.739319 
	C184.253448,292.470978 184.438004,289.857391 182.776962,286.459259 
	C180.028839,280.837189 180.550003,275.044708 184.788101,270.157715 
	C186.388474,268.312317 186.825424,266.509857 186.645142,264.253387 
	C186.354401,260.614075 185.230209,259.258331 180.936157,259.810638 
	C175.872879,260.461914 171.967453,261.450806 170.654678,267.441772 
	C179.966995,272.203247 176.340332,280.035553 174.827332,287.374420 
	C174.460815,289.152283 173.826401,290.582794 174.900497,292.534027 
	C182.029312,305.484375 173.101807,321.414337 158.483459,323.486115 
	C145.790955,325.284943 135.952744,320.847534 126.849075,312.725891 
	C123.612717,309.838623 119.250809,312.031952 115.534782,312.347382 
	C104.188858,313.310425 94.074097,311.263855 85.758530,302.869263 
	C80.177582,297.235229 78.543983,290.302338 78.761505,282.772705 
	C78.826622,280.518768 78.467102,279.179871 76.373459,277.961304 
	C69.740433,274.100616 64.974396,268.313416 60.977203,261.891754 
	C56.964703,255.445572 58.826992,248.257584 58.882229,241.380386 
	C58.915146,237.281540 59.547291,233.007111 60.879135,229.145874 
	C62.459995,224.562653 60.633789,222.239502 56.987579,220.373016 
	C51.324795,217.474228 45.984440,214.051407 41.389580,209.662247 
	C34.994911,203.553894 35.705971,197.797119 43.166588,192.913254 
	C47.760300,189.906128 52.304276,186.820618 56.948914,183.894638 
	C59.785572,182.107651 61.168854,179.759277 60.647247,175.962982 
M228.300491,178.342072 
	C235.367538,189.997726 236.952576,202.081848 233.566803,215.557755 
	C230.234436,228.821075 222.812622,238.564819 210.985504,247.323273 
	C230.310120,246.897034 246.425781,240.682739 262.208893,233.293106 
	C277.977539,225.910233 292.729767,216.678375 308.603271,208.508072 
	C304.061279,203.545181 299.045074,200.632080 294.292603,197.354233 
	C272.961273,182.641602 250.246445,170.671005 225.662323,162.335052 
	C221.345840,160.871414 217.021072,159.787781 211.183807,160.056488 
	C217.588867,166.186157 223.834534,170.985001 228.300491,178.342072 
M142.776428,162.340897 
	C142.833420,162.184326 142.921555,162.031052 142.938614,161.870255 
	C142.955536,161.710587 142.899826,161.399765 142.877853,161.399948 
	C141.579926,161.409882 140.240143,161.245026 138.990540,161.507355 
	C107.321548,168.155579 79.232025,182.266724 53.093117,202.925964 
	C82.111580,222.144531 111.023926,240.179504 145.816177,246.690765 
	C146.104446,243.265427 143.985641,242.183380 142.388229,240.904236 
	C140.164246,239.123383 138.212234,237.157028 136.416489,234.930466 
	C125.630333,221.556686 125.312775,206.313721 128.184250,190.429611 
	C130.117249,179.736877 135.952332,171.107407 142.776428,162.340897 
M103.564301,119.651085 
	C107.578262,118.087921 111.775085,118.526649 115.911034,118.664825 
	C118.236938,118.742538 119.497185,120.512306 119.709633,122.645767 
	C119.928101,124.839684 118.316856,125.794670 116.378540,126.301399 
	C101.094467,130.296997 91.863655,142.720428 92.259094,158.440262 
	C92.350334,162.067429 93.203064,163.246155 96.996391,161.829758 
	C106.181358,158.400192 115.311783,154.771561 124.859192,152.394501 
	C127.145096,151.825378 128.430573,150.134857 129.512772,148.173080 
	C135.988037,136.434830 142.554062,124.995583 156.666428,120.450951 
	C161.391541,118.929329 162.474365,114.488419 160.193390,110.242294 
	C155.931137,102.307961 154.188370,94.453461 159.282959,86.234833 
	C159.397812,86.049561 159.161331,85.646492 158.896042,84.544868 
	C155.499954,88.013107 153.672729,91.630890 153.371216,96.018875 
	C152.881058,103.151871 150.366730,109.514008 144.701736,113.875137 
	C133.098160,122.808006 119.925751,121.977173 108.806870,112.143234 
	C104.804092,108.603020 103.572861,102.914490 105.765999,98.545982 
	C107.255302,95.579468 109.729996,95.054810 112.493370,95.994423 
	C114.598297,96.710129 114.945930,98.855484 115.477325,100.842278 
	C116.853806,105.988731 125.050972,111.721069 130.286392,111.385773 
	C134.930542,111.088333 139.445114,105.983994 140.698746,99.979416 
	C141.540680,95.946877 142.000305,91.878929 143.734268,87.965843 
	C146.323914,82.121727 151.107452,78.349854 155.767151,74.404305 
	C153.636871,70.850639 150.326660,69.683891 147.777161,67.642021 
	C143.678177,64.359200 138.988739,64.606766 134.580124,66.670258 
	C131.950836,67.900917 128.905792,70.022263 131.200562,73.663902 
	C135.963608,81.222504 135.415359,89.548447 135.354446,97.869843 
	C135.323837,102.052780 133.811981,104.571136 129.182343,104.375854 
	C124.681854,104.186012 122.719437,102.156670 122.715294,97.409149 
	C122.712242,93.910316 122.817039,90.408928 122.715240,86.913292 
	C122.601128,82.995132 121.232704,79.533669 118.686096,76.587799 
	C115.751671,77.012672 113.922821,78.814362 112.411484,80.737251 
	C108.363129,85.888000 103.529564,90.248695 98.475700,94.284935 
	C93.649178,98.139610 91.008621,103.094742 89.300148,108.757576 
	C87.900475,113.396896 86.519524,118.190224 83.671150,122.034058 
	C76.055466,132.311279 73.310493,144.182755 71.525856,156.409531 
	C70.680344,162.202255 69.377113,168.047974 70.667931,174.310364 
	C75.968323,172.734543 79.517433,170.664352 78.738754,164.545273 
	C78.174812,160.113632 78.586975,155.597046 78.173546,151.095215 
	C77.731880,146.285767 78.688271,141.496765 81.654007,137.349960 
	C87.162415,129.647888 93.337082,122.781433 103.564301,119.651085 
M268.082214,105.521355 
	C265.689392,99.094421 260.631165,94.953140 255.160172,91.518120 
	C251.230118,89.050583 247.068527,87.479950 244.929611,82.652359 
	C243.594406,79.638756 240.071671,77.673485 236.515335,78.539513 
	C233.063400,79.380127 233.494797,82.786987 233.332626,85.608849 
	C233.079956,90.004951 234.289078,94.144699 235.238541,98.355766 
	C236.240051,102.797752 233.728470,105.087662 229.357620,103.897217 
	C226.645584,103.158569 224.522324,101.701256 223.615723,98.875694 
	C221.079422,90.970901 219.256882,83.087479 224.642319,75.544678 
	C225.831741,73.878784 225.843658,72.452751 224.025574,71.342102 
	C221.896576,70.041512 219.761627,67.962364 217.522354,67.811874 
	C214.001740,67.575279 210.002792,64.810562 206.798035,68.467628 
	C204.863373,70.675346 203.295425,73.204422 201.318054,75.925804 
	C203.090256,77.058853 204.371384,78.133064 205.841385,78.774208 
	C212.681152,81.757370 216.415680,86.950729 217.754333,94.241158 
	C218.473572,98.158279 218.158234,102.189163 219.470444,106.038788 
	C220.751160,109.796028 223.159439,112.151115 227.094391,112.028297 
	C230.572510,111.919731 233.851852,110.882774 235.779785,107.364662 
	C237.533920,104.163673 239.618149,101.145134 241.504990,98.014893 
	C243.446335,94.794258 246.480957,94.295990 249.763428,94.840034 
	C251.656357,95.153770 253.899689,96.737801 252.935867,98.471245 
	C249.825974,104.064491 247.819138,110.631485 242.967545,114.846054 
	C237.064117,119.974342 229.691925,120.966583 221.965454,119.001129 
	C212.089890,116.488998 207.300812,110.342651 206.643585,98.995102 
	C206.324966,93.493820 205.164215,88.399506 199.465530,84.862289 
	C199.058029,87.029205 199.408737,88.202316 200.243958,89.313759 
	C203.185883,93.228584 203.352600,97.182297 201.760406,101.932266 
	C200.185303,106.631195 197.855972,111.094460 197.054306,116.096077 
	C196.614609,118.839378 196.645309,120.120239 199.941544,120.910278 
	C211.522095,123.685921 219.209351,131.827377 225.022903,141.507935 
	C227.851685,146.218323 230.780960,149.914230 236.130539,151.261993 
	C243.093597,153.016266 249.673965,155.808258 256.268097,158.555725 
	C263.239990,161.460571 263.526611,161.378082 266.090149,154.184845 
	C269.123566,145.673065 268.476807,142.041290 261.472656,136.264297 
	C255.824524,131.605698 249.336594,128.133301 242.075439,126.507698 
	C240.176849,126.082634 238.243378,125.747513 238.000839,123.561943 
	C237.731674,121.136322 239.684982,120.165588 241.627289,119.445534 
	C244.877197,118.240746 248.156509,118.301796 251.392227,119.454102 
	C258.194855,121.876656 264.501648,125.347939 269.978699,129.967484 
	C280.510132,138.850082 282.285492,147.978149 276.379883,160.622787 
	C275.567902,162.361313 275.441711,164.121796 275.147797,165.915085 
	C274.949860,167.122574 275.395782,167.856354 276.500183,168.204544 
	C277.748383,168.598114 278.363434,167.741425 278.809631,166.825684 
	C279.833344,164.724808 280.444794,162.519745 280.741272,160.171631 
	C281.384094,155.080536 281.421600,149.716080 283.171112,145.007568 
	C285.835876,137.835861 283.131653,132.966599 278.622650,127.963989 
	C273.071014,121.804604 269.994751,114.332024 268.082214,105.521355 
M145.777481,182.272781 
	C140.769989,188.806412 138.304840,196.362381 137.484726,204.398422 
	C136.567795,213.383026 137.333481,221.547516 145.268082,228.241852 
	C153.306702,235.023941 162.827560,238.268311 172.107971,242.181442 
	C175.161041,243.468781 179.121368,243.900589 182.358765,243.231964 
	C196.955811,240.217102 210.241241,234.585098 216.863831,219.952545 
	C221.170395,210.437210 224.975983,200.421844 221.182312,189.727310 
	C215.472183,173.630295 203.233292,164.888062 186.986389,162.121323 
	C181.688583,161.219147 175.470047,160.885895 170.280182,163.132111 
	C160.790085,167.239487 151.723709,172.268021 145.777481,182.272781 
M138.737411,283.643768 
	C142.428802,284.457916 146.580231,284.654633 147.329178,289.636139 
	C147.826126,292.941437 145.705353,294.773041 143.401993,296.598358 
	C141.247406,298.305756 138.366150,307.867828 139.175751,309.920715 
	C139.969131,311.932465 147.830963,315.038635 151.311646,314.568512 
	C153.110123,314.325592 154.960449,313.974457 156.619186,313.274017 
	C163.963058,310.172791 166.435440,298.957703 161.046127,293.230042 
	C158.710403,290.747711 158.351013,288.331696 160.756180,285.808807 
	C163.437668,282.996033 164.132706,279.590454 164.287582,276.083679 
	C162.437042,274.712189 161.127914,275.923859 159.828445,276.427795 
	C152.309189,279.343750 144.754303,279.842346 137.034729,277.218262 
	C132.818115,275.784973 129.811401,273.321564 128.601791,268.856476 
	C127.746025,265.697479 127.133934,262.396118 124.484535,259.322479 
	C119.191254,263.585999 113.010460,265.523041 105.966629,265.668976 
	C112.600204,272.190552 111.411835,276.840912 103.057770,279.800110 
	C99.096825,281.203125 94.967224,281.358276 90.965401,281.931824 
	C88.498032,295.426025 100.171761,305.302063 114.663208,302.260468 
	C119.833855,301.175232 124.611572,299.389923 127.745621,294.831818 
	C129.285675,292.591919 130.627380,290.266724 127.460068,287.983032 
	C125.917870,286.871094 125.066055,284.951599 126.139816,283.107697 
	C127.256859,281.189514 129.269653,280.683563 131.372452,281.301849 
	C133.592178,281.954468 135.751602,282.812195 138.737411,283.643768 
M260.527802,298.074249 
	C266.293030,296.167023 268.999481,290.726990 267.610107,282.893524 
	C266.616608,277.291809 261.857361,280.042969 258.673340,279.372467 
	C257.224609,279.067413 255.718140,279.039948 254.265961,278.747223 
	C251.102463,278.109528 248.166962,277.059143 246.492752,273.959198 
	C244.905106,271.019531 248.087433,269.372498 248.672516,266.501434 
	C243.678070,269.501343 239.335068,267.537231 234.995941,265.898163 
	C233.133026,265.194458 231.652252,264.278961 229.704926,266.296051 
	C220.211288,276.129822 209.375504,281.656738 195.432968,275.957794 
	C195.261765,275.887848 194.906860,276.267303 194.518097,276.512360 
	C194.518097,277.101196 194.244019,277.963684 194.559097,278.376953 
	C199.467316,284.814240 198.064804,290.845215 194.877991,297.789734 
	C191.665176,304.790924 196.793030,310.756042 206.583832,313.197754 
	C212.659988,314.713043 215.350433,312.228180 217.172699,304.166199 
	C218.197891,299.630615 215.519440,296.943695 212.998520,294.141296 
	C208.651672,289.309052 209.943237,284.399017 216.273056,282.741425 
	C219.630585,281.862183 223.072525,281.250671 226.510208,280.750946 
	C228.840439,280.412231 231.422653,280.410217 232.730560,282.823120 
	C234.210068,285.552582 232.061661,287.506775 230.203537,288.602081 
	C225.305298,291.489471 229.534531,294.811646 229.580460,297.812042 
	C229.622955,300.586914 232.420837,300.477051 234.598038,300.661835 
	C243.130722,301.385925 251.509857,300.515808 260.527802,298.074249 
M282.474121,262.977966 
	C295.661163,253.387390 297.291656,239.747223 296.360382,224.343781 
	C289.634125,227.100449 284.268585,230.690231 278.745789,233.967102 
	C278.108887,234.345001 277.625580,235.177307 277.330536,235.904251 
	C275.348999,240.786575 272.868408,245.456238 272.103302,250.817230 
	C271.178680,257.295593 268.016235,262.305450 261.533844,264.703491 
	C260.826874,264.965027 259.962036,265.355988 259.880615,266.372437 
	C265.051880,271.215546 273.436890,270.089874 282.474121,262.977966 
M74.739319,231.206116 
	C71.917801,230.150986 71.678711,232.238388 71.393677,234.060638 
	C70.677086,238.641922 69.902069,243.221924 69.419792,247.830612 
	C67.625214,264.979767 76.356392,269.389557 90.441605,270.576965 
	C94.588844,270.926575 98.194435,269.376587 100.267731,264.966034 
	C98.456184,264.126099 96.796318,263.433289 95.206627,262.605682 
	C89.385490,259.575165 85.097519,254.792038 86.896248,248.249466 
	C89.341049,239.356903 84.548378,235.915024 78.012733,232.863525 
	C77.110046,232.442078 76.249489,231.930420 74.739319,231.206116 
M195.487976,144.297073 
	C201.789932,144.077652 208.163925,145.652390 215.334641,143.789719 
	C210.472656,136.706772 205.089554,131.640366 197.075699,128.643448 
	C195.448105,134.165466 191.026550,138.494690 195.487976,144.297073 
M152.846710,134.229675 
	C150.205811,138.023438 146.601547,141.283508 145.476593,146.622925 
	C152.141144,147.055756 157.776260,144.535568 163.674164,144.437180 
	C164.732864,144.419525 165.470139,143.470108 165.505051,142.393814 
	C165.621445,138.805756 167.040665,134.600769 164.360580,131.891708 
	C161.945953,129.450958 158.493942,131.922882 155.544952,132.571167 
	C154.776245,132.740158 154.100876,133.333786 152.846710,134.229675 
M204.161285,258.168030 
	C201.839172,258.643463 199.120514,258.050323 197.514160,260.522156 
	C200.650574,265.367493 207.444656,269.568695 211.004700,268.126282 
	C217.386597,265.540588 220.525909,264.764648 220.899597,256.303741 
	C215.456436,255.743607 210.372894,258.827728 204.161285,258.168030 
M247.781708,257.639008 
	C256.142334,257.307190 259.470428,253.250961 258.392365,244.025818 
	C250.909897,248.044769 242.415390,249.043198 234.007751,253.750839 
	C239.214828,254.946396 242.357925,258.476746 247.781708,257.639008 
M139.935760,263.751587 
	C142.238754,270.346680 142.259460,270.425781 149.102371,268.634521 
	C151.476425,268.013031 153.804535,267.059784 155.997406,265.949493 
	C157.931320,264.970337 159.508026,263.482269 159.006104,260.811890 
	C158.011505,260.493500 157.094009,260.061310 156.133163,259.916229 
	C152.061951,259.301758 147.969437,258.827271 143.900482,258.199341 
	C137.775238,257.254089 137.732697,257.272278 139.935760,263.751587 
M100.519325,254.828796 
	C106.058182,258.026978 108.299736,257.531769 115.748619,251.270432 
	C110.425079,249.252060 105.292534,247.306091 100.055862,245.320633 
	C99.115204,250.227570 99.115204,250.227570 100.519325,254.828796 
z"/>
<path fill="#000000" opacity="1.000000" stroke="none" 
	d="
M168.972916,172.643814 
	C176.477036,171.402725 183.379410,168.055695 190.839493,170.884232 
	C196.598846,173.067917 199.197525,176.817078 197.841919,182.872894 
	C196.794861,187.550369 198.292236,188.705338 202.751358,188.750259 
	C213.910263,188.862640 217.418350,194.025406 213.651657,204.426605 
	C210.581467,212.904510 206.951797,220.951736 199.476654,226.798370 
	C179.645889,242.308945 153.474960,231.580063 148.686096,209.235718 
	C145.243942,193.174973 152.898117,178.799057 168.972916,172.643814 
M169.615005,206.703445 
	C170.811874,208.694656 171.848190,210.806839 173.238541,212.652283 
	C176.273758,216.681030 180.022781,220.118774 185.448074,218.334915 
	C190.774185,216.583664 194.334900,212.563293 195.587479,206.930832 
	C196.296036,203.744583 195.776855,200.873062 192.144577,199.693130 
	C187.939194,198.326996 185.464767,195.741318 185.103622,191.121719 
	C184.981216,189.555786 183.865585,188.074570 183.241150,186.539444 
	C181.488251,182.230042 178.641693,182.848343 175.695312,185.014725 
	C169.575989,189.514038 166.887756,198.546188 169.615005,206.703445 
z"/>
</svg>