<svg version="1.1" id="Layer_1" xmlns="http://www.w3.org/2000/svg" xmlns:xlink="http://www.w3.org/1999/xlink" x="0px" y="0px"
	 width="100%" viewBox="0 0 288 304" enable-background="new 0 0 288 304" xml:space="preserve">
<path fill="#000000" opacity="1.000000" stroke="none" 
	d="
M181.188904,224.710754 
	C177.032562,223.882935 173.185577,223.419144 169.569077,222.245285 
	C158.015488,218.495148 155.375015,210.765411 161.933517,199.638000 
	C166.815506,191.355057 174.722061,186.230438 182.509003,181.057098 
	C185.527374,179.051819 188.498108,176.974854 191.824265,174.702545 
	C186.770020,169.093491 180.297440,167.250793 174.226791,164.888062 
	C166.014114,161.691605 157.624252,158.951553 149.324829,155.975449 
	C148.371994,155.633789 147.449936,155.122635 146.455200,155.540649 
	C132.765244,161.293716 120.313583,169.058701 107.868988,178.780380 
	C112.414589,181.256317 116.050529,183.528976 119.922234,185.280472 
	C126.537483,188.273117 131.330215,193.284210 135.689331,198.802933 
	C138.841187,202.793228 139.740814,207.526337 139.254166,212.485657 
	C138.819366,216.916702 136.527191,219.675629 131.942993,220.748108 
	C120.800499,223.354950 110.052330,221.467178 100.714035,215.750305 
	C94.574951,211.991989 91.259575,204.758759 89.742661,197.414978 
	C88.907066,193.369629 88.601585,189.221222 89.581902,185.050369 
	C90.323349,181.895798 89.027542,179.759323 85.897049,178.371735 
	C75.205719,173.632797 67.374695,166.312958 66.758331,153.877426 
	C66.095276,140.499832 71.426949,129.810760 83.135201,122.973747 
	C86.843521,120.808273 87.503830,119.054680 86.400711,114.789665 
	C83.815819,104.795525 87.564362,95.951126 94.244652,88.676559 
	C100.047157,82.357872 107.547585,78.132889 115.611275,75.172440 
	C129.552231,70.054253 137.725906,77.279266 140.063599,92.120140 
	C141.790604,103.084038 133.167587,109.466393 125.466179,115.338982 
	C121.286819,118.525887 116.255890,120.548157 111.593376,124.313507 
	C121.670906,130.084763 131.667526,135.141327 142.412888,138.635727 
	C143.899597,139.119186 145.391693,138.658112 146.772324,138.000092 
	C157.609741,132.834885 168.733643,128.418655 180.273697,125.069809 
	C181.334778,124.761887 182.546188,124.480972 183.120941,122.938606 
	C177.760086,118.282585 171.041183,115.481590 166.041306,110.243500 
	C159.620010,103.516304 157.351151,95.244858 160.781219,88.256020 
	C164.624069,80.426064 171.861359,76.923523 181.847061,78.883797 
	C191.654816,80.809143 200.310928,85.608002 207.932343,91.919693 
	C213.953094,96.905807 214.964645,107.221466 211.059097,116.051239 
	C210.329163,117.701485 209.478683,119.298416 208.503235,121.288361 
	C212.304703,123.449844 215.826492,125.605728 219.483231,127.501274 
	C228.594635,132.224319 231.486038,137.361496 230.590347,147.594269 
	C230.202972,152.020081 230.381210,156.366409 228.601913,160.770645 
	C225.355911,168.805405 218.622665,172.935669 211.821365,177.703232 
	C212.611267,181.436737 213.667664,185.248886 214.190781,189.132858 
	C215.542892,199.171677 210.556458,206.935608 205.188492,214.799957 
	C199.297760,223.430161 190.755539,224.513733 181.188904,224.710754 
M177.264755,151.058395 
	C185.793411,155.202713 194.382019,159.236374 202.117676,164.816696 
	C203.589172,165.878220 204.921097,166.937134 207.063065,165.836655 
	C217.620132,160.412720 219.062073,145.319733 209.568375,138.276505 
	C207.171082,136.498001 204.529037,135.046341 202.156570,133.238312 
	C200.307175,131.828918 198.751236,131.963913 196.670578,132.854355 
	C187.352768,136.842041 177.934601,140.594727 168.575485,144.487106 
	C167.493011,144.937302 165.944229,145.007248 165.759308,146.863434 
	C169.391098,148.178268 172.973129,149.475098 177.264755,151.058395 
M94.371658,132.124542 
	C88.334442,136.059814 85.060295,141.951035 82.876274,148.559814 
	C80.250198,156.506287 84.945320,164.947357 93.039429,167.179688 
	C94.910461,167.695724 95.776901,166.469757 96.887077,165.526443 
	C101.588921,161.531326 106.530533,157.903976 112.057419,155.086975 
	C116.727646,152.706619 121.299873,150.133972 126.186829,147.500198 
	C125.388626,146.810577 125.082222,146.383682 124.669853,146.213440 
	C115.402298,142.387009 106.546478,137.856110 99.083054,131.016983 
	C97.218353,129.308258 96.135719,130.638855 94.371658,132.124542 
M179.220795,197.700943 
	C176.184479,200.548370 173.152237,203.395752 171.297729,207.230072 
	C170.609940,208.652161 170.197800,209.776276 171.818420,211.107895 
	C175.868317,214.435577 188.010788,214.895874 191.009033,210.796127 
	C194.952393,205.404083 199.153549,199.782120 198.815735,192.408142 
	C198.709152,190.081451 198.417130,187.858719 196.758621,185.766373 
	C190.394058,188.774384 185.716705,193.977310 179.220795,197.700943 
M172.367371,93.624397 
	C172.594833,96.903610 174.613235,99.252571 177.018723,100.953957 
	C182.699631,104.971985 188.588882,108.701736 194.479599,112.411995 
	C195.791260,113.238144 197.327179,114.115387 198.994492,112.516418 
	C202.958328,108.715080 202.600830,99.892227 197.928726,96.990143 
	C193.711700,94.370750 189.258392,92.028481 184.673920,90.133354 
	C180.209732,88.287956 175.916138,89.156403 172.367371,93.624397 
M125.401886,97.967682 
	C126.875038,93.255600 125.271248,89.903206 121.243530,89.275520 
	C113.446518,88.060448 100.122192,97.230858 98.555412,105.019615 
	C98.028915,107.636902 97.679527,110.500000 100.165627,112.415207 
	C102.545990,114.248955 104.092369,111.628273 105.917931,110.852997 
	C108.825630,109.618164 111.680145,108.211861 114.420059,106.639214 
	C118.295937,104.414543 122.434517,102.481880 125.401886,97.967682 
M102.663834,189.473160 
	C100.207542,193.454941 100.562981,197.209442 103.095772,201.126007 
	C107.563972,208.035400 113.944069,211.184845 121.957222,211.150635 
	C126.947418,211.129333 128.430588,208.347870 125.938255,204.103851 
	C122.876808,198.890732 118.103012,195.509964 112.922165,192.828079 
	C109.858429,191.242142 107.509598,187.509003 102.663834,189.473160 
z"/>
</svg>